<svg width="1440" height="2442" viewBox="0 0 1440 2442" fill="none" xmlns="http://www.w3.org/2000/svg">
<g clip-path="url(#clip0_272_88)">
<rect width="1440" height="2442" fill="white"/>
<g filter="url(#filter0_f_272_88)">
<path d="M49.2072 851.669C34.8973 876.556 18.232 886.169 5.26863 888.825C-5.77615 891.088 -17.4353 888.848 -28.4635 886.505C-52.8664 881.321 -85.6367 864.123 -100.218 821.811C-103.382 812.631 -103.711 802.778 -103.432 793.072C-102.6 764.046 -104.883 722.384 -118.863 713.357C-153.54 694.369 -208.432 647.105 -150.58 609.952C-130.493 597.376 -81.5691 585.203 -39.3772 630.689C-34.6007 635.839 -29.8196 641.084 -23.919 644.894C-2.95885 658.427 39.4685 677.035 96.9461 679.864C111.45 680.578 126.376 682.49 138.396 690.639C172.225 713.576 167.595 743.005 154.937 764.232C147.306 777.03 133.5 784.171 120.15 790.788C96.5709 802.475 65.6206 823.124 49.2072 851.669Z" fill="url(#paint0_linear_272_88)"/>
<path d="M37.0269 834.355C25.8683 854.865 12.5934 863.74 1.72106 866.855C-9.08832 869.951 -20.9308 867.955 -31.9508 865.563C-52.7091 861.056 -79.6176 846.923 -93.0911 812.994C-96.6874 803.938 -97.2168 794.077 -97.2547 784.355C-97.3524 759.281 -100.459 724.804 -112.526 717.42C-143.163 701.579 -192.055 661.574 -142.527 628.283C-125.47 617.102 -83.7159 605.747 -46.1725 643.268C-41.1869 648.25 -36.2965 653.391 -30.2399 656.998C-11.6649 668.059 24.1466 682.478 71.8186 684.329C86.3204 684.892 101.384 686.277 113.326 694.574C139.526 712.778 137.601 736.132 128.473 754C121.827 767.01 108.329 774.31 95.4466 781.277L94.8493 781.6C74.9629 792.358 50.0971 810.332 37.0269 834.355Z" fill="url(#paint1_linear_272_88)"/>
</g>
<g filter="url(#filter1_f_272_88)">
<ellipse cx="1456.74" cy="1423.28" rx="323" ry="290.5" fill="url(#paint2_radial_272_88)"/>
<path d="M1643.75 1329.72C1676.81 1360.11 1682.84 1387.46 1680.2 1405.45C1678.44 1417.42 1672.62 1428.63 1667.27 1439.49C1651.63 1471.27 1612.57 1513 1538.52 1513.8C1529.6 1513.9 1520.79 1512.04 1512.26 1509.46C1471.44 1497.15 1404.35 1482.11 1385.2 1497.99C1345.47 1536.22 1258.04 1590.41 1226.2 1501.34C1215.42 1469.97 1216.14 1399.78 1300.83 1361.93C1307.08 1359.14 1313.31 1356.16 1318.7 1351.94C1346.04 1330.53 1392.37 1279.07 1418.2 1198.43C1422.94 1183.65 1429.63 1169.1 1441.28 1158.84C1492.06 1114.16 1537.34 1137.37 1563.4 1165.52C1574.07 1177.05 1578.26 1192.7 1581.39 1208.1C1588.59 1243.49 1606.75 1295.73 1643.75 1329.72Z" fill="url(#paint3_linear_272_88)"/>
<path d="M1614.62 1339.24C1642.51 1363.72 1649.07 1386.33 1647.96 1402C1647.11 1414.05 1641.5 1425.47 1636.17 1436.32C1622.66 1463.76 1590.11 1498.74 1528.56 1501.59C1519.63 1502 1510.77 1500.32 1502.15 1497.98C1466.33 1488.26 1409.37 1477.22 1393.31 1491.23C1359.54 1525.34 1284.65 1574.38 1255.28 1497.58C1245.36 1470.68 1244.59 1410.14 1316.16 1375.28C1322.33 1372.28 1328.5 1369.17 1333.75 1364.75C1356.87 1345.32 1394.55 1300.85 1415.33 1232.79C1419.85 1217.96 1426.04 1203.22 1437.69 1192.96C1478.74 1156.81 1516.45 1173.48 1539.48 1195.94C1550.71 1206.89 1555.15 1222.51 1558.81 1237.76C1566.13 1268.28 1582.88 1311.39 1614.62 1339.24Z" fill="url(#paint4_linear_272_88)"/>
</g>
<path d="M-35.4105 708.744C-35.0292 703.421 -35.4377 689.449 -40.1221 676.144C-44.8045 662.845 -40.4823 650.643 -37.7326 646.198C-37.7308 646.195 -37.7271 646.195 -37.7249 646.198C-31.0013 654.172 -20.1921 676.798 -30.7113 703.548L-9.09464 679.649C-8.40005 673.98 -8.13992 660.109 -12.6561 649.979C-17.1706 639.852 -13.0858 623.157 -10.4764 616.067C-10.475 616.063 -10.4705 616.062 -10.4681 616.065C-3.70944 624.703 7.14722 648.252 -3.45552 673.414L20.0408 647.437C20.5272 644.098 20.559 634.681 16.7947 623.719C13.0322 612.763 16.8176 599.198 19.184 593.776C19.1856 593.772 19.1903 593.772 19.1924 593.775C23.8962 601.184 31.5838 621.236 24.7401 642.241L28.6929 636.37L30.2741 634.022C35.1107 625.175 52.9289 607.294 77.5766 606.917C77.581 606.917 77.5837 606.922 77.5808 606.925C72.8766 612.125 61.1458 623.412 51.7917 627.036C45.1343 629.615 36.8495 634.419 30.7792 638.257L28.2208 641.133C50.783 634.504 68.3607 640.049 74.5643 643.857C74.5674 643.859 74.5674 643.863 74.5643 643.865C68.4686 647.8 54.8681 653.096 46.0537 650.184C35.1655 646.586 28.0899 646.436 22.9938 647.008L1.01639 671.711C13.9935 667.274 37.1938 663.197 53.2616 673.708C53.2649 673.71 53.2648 673.715 53.2611 673.717C46.1189 676.707 29.4293 682.001 19.7378 679.279C11.769 677.04 1.18538 677.881 -5.42473 678.951L-26.0488 702.132C-13.2231 698.696 9.77715 695.815 27.05 704.788C27.0536 704.79 27.054 704.795 27.0503 704.796C21.2296 707.725 5.8058 713.157 -9.39767 711.491C-20.543 710.269 -28.0688 709.482 -32.2133 709.061L-48.8921 727.808L-21.5944 736.354L-21.594 736.354C-15.4287 734.768 -5.63514 731.149 1.2622 724.911C9.61463 717.356 27.0179 716.729 34.6823 717.36C34.6856 717.361 34.6876 717.364 34.6864 717.367C31.1677 726.155 16.1366 742.905 -15.8654 739.646L13.7013 753.165C13.7023 753.166 13.7033 753.166 13.7044 753.166C19.9379 751.876 34.3023 747.615 41.9046 740.89C49.5046 734.167 66.0913 734.44 73.4432 735.418C73.447 735.418 73.4487 735.422 73.4464 735.425C66.6224 744.366 46.7693 761.134 21.8845 756.764C21.8789 756.763 21.8759 756.771 21.881 756.774L51.5241 772.262C51.5251 772.262 51.5262 772.263 51.5273 772.262C56.1245 771.381 67.2369 768.336 74.923 763.198C82.6063 758.063 96.4272 756.214 102.386 755.931C102.39 755.93 102.393 755.934 102.391 755.938C98.1403 763.433 83.0549 777.723 56.6681 775.006C56.6628 775.006 56.6601 775.013 56.6647 775.016L68.9742 782.377L68.9753 782.378C80.4315 785.814 104.199 797.616 107.637 817.34C107.638 817.344 107.635 817.347 107.631 817.346C102.577 815.925 90.3745 810.801 81.9347 801.656C71.3898 790.231 70.1271 785.316 58.8719 778.897C58.8669 778.894 58.8601 778.899 58.8641 778.903C64.129 784.315 73.9252 800.871 71.1833 824.036C71.1828 824.04 71.1779 824.042 71.175 824.039C67.6534 820.221 59.8722 809.655 56.8617 797.87C53.0963 783.13 56.3066 781.68 50.6915 775.287C50.6911 775.286 50.6906 775.286 50.6901 775.286L19.9726 758.837C26.7982 762.492 39.5114 778.398 35.7657 812.782C35.7652 812.787 35.7603 812.789 35.7574 812.786C31.1914 808.023 21.6969 795.151 20.189 781.703C18.6805 768.249 14.6808 759.09 12.8688 756.19C12.8683 756.19 12.8676 756.189 12.8668 756.189L-18.7653 740.791C-18.7703 740.789 -18.7756 740.795 -18.7718 740.799C-10.3395 749.696 4.79986 773.091 -1.95047 795.672C-1.95163 795.676 -1.95638 795.677 -1.95891 795.674C-5.86316 790.88 -14.4126 778.362 -17.4236 766.575C-21.1892 751.834 -18.3696 748.716 -24.9547 737.093L-50.714 729.856L-51.1745 730.373C-51.1763 730.375 -51.1795 730.375 -51.1816 730.373L-52.2228 729.432L-50.3431 727.353L-35.4105 708.744Z" fill="#2B3825"/>
<path d="M-39.7419 1632.48C-40.7304 1626.25 -44.9478 1610.27 -53.9096 1596.21C-62.8683 1582.15 -61.1635 1566.94 -59.1895 1561.09C-59.1884 1561.09 -59.1848 1561.08 -59.1821 1561.09C-49.3023 1568.46 -30.7874 1591.62 -35.7247 1625.24L-17.2457 1591.92C-17.9664 1585.21 -21.387 1569.17 -29.3037 1558.72C-37.2178 1548.27 -36.9919 1527.95 -35.8889 1519.09C-35.8884 1519.08 -35.8842 1519.08 -35.8811 1519.08C-25.7833 1527.21 -6.96557 1551.42 -12.4251 1583.23L7.66071 1547.02C7.32541 1543.05 4.83631 1532.2 -2.43766 1520.58C-9.70851 1508.98 -8.98762 1492.34 -7.71708 1485.47C-7.71635 1485.46 -7.71186 1485.46 -7.709 1485.46C-0.306487 1492.73 13.9243 1513.76 11.6779 1539.78L14.6546 1531.96L15.8453 1528.83C19.0412 1517.35 34.7617 1491.98 63.0406 1484.94C63.0448 1484.94 63.0486 1484.94 63.0465 1484.94C59.0253 1492.19 48.5452 1508.34 38.7464 1515.02C31.7729 1519.77 23.5224 1527.52 17.5628 1533.57L15.3883 1537.57C39.5891 1523.89 61.3157 1525.56 69.4786 1528.28C69.4821 1528.28 69.483 1528.28 69.4804 1528.29C63.5179 1534.45 49.2783 1544.2 38.3479 1543.21C24.8466 1541.99 16.66 1543.71 10.9458 1545.74L-7.73313 1580.07C6.01868 1571.48 31.6384 1560.57 52.9575 1568.36C52.9613 1568.36 52.9623 1568.37 52.959 1568.37C45.5386 1573.73 27.7412 1584.3 15.8517 1583.76C6.07632 1583.32 -5.88367 1587.13 -13.2075 1590.14L-30.7362 1622.36C-16.8904 1614.96 8.81959 1605.47 31.1139 1611.17C31.1179 1611.18 31.1194 1611.18 31.1162 1611.18C25.201 1616.11 8.89832 1626.51 -9.05469 1628.67C-22.2147 1630.25 -31.0909 1631.36 -35.9756 1631.99L-50.1512 1658.05L-16.4293 1660.56L-16.4289 1660.56C-9.75568 1657.08 0.549715 1650.29 6.81795 1641.26C14.4089 1630.32 34.2797 1624.93 43.2729 1623.6C43.2763 1623.6 43.2789 1623.6 43.2784 1623.61C41.5848 1634.67 28.7711 1657.99 -8.95024 1662.82L28.718 1670.45C28.719 1670.45 28.72 1670.45 28.721 1670.45C35.552 1667.3 50.9483 1658.54 57.8979 1648.76C64.8457 1638.98 84.018 1634.84 92.7442 1634C92.748 1634 92.7506 1634 92.749 1634C87.2904 1646.13 68.9271 1670.76 39.0988 1672.4C39.0931 1672.4 39.092 1672.41 39.0975 1672.41L77.3875 1682.3C77.3886 1682.3 77.3897 1682.3 77.3907 1682.3C82.4473 1680.05 94.4253 1673.56 101.897 1665.59C109.367 1657.61 124.786 1651.78 131.57 1649.85C131.574 1649.85 131.577 1649.85 131.576 1649.86C128.693 1659.63 115.156 1680.13 84.0419 1684.08C84.0366 1684.08 84.0355 1684.09 84.0406 1684.09L100.192 1689.26L100.193 1689.26C114.305 1690.15 144.837 1697.36 154.084 1719.15C154.086 1719.15 154.084 1719.16 154.08 1719.16C147.88 1718.88 132.455 1716.25 120.285 1707.99C105.077 1697.66 102.306 1692.34 87.6204 1687.96C87.6148 1687.96 87.6094 1687.97 87.6143 1687.97C95.1255 1692.79 110.852 1709.22 113.908 1736.64C113.909 1736.64 113.904 1736.65 113.901 1736.64C108.823 1733.19 97.0283 1723.11 90.4008 1710.35C82.112 1694.39 85.4196 1691.86 77.2397 1686C77.2392 1686 77.2387 1686 77.2381 1686L37.4593 1675.3C46.2985 1677.68 65.2024 1692.58 70.1112 1733.18C70.1117 1733.18 70.1075 1733.19 70.1039 1733.19C63.5701 1728.93 49.1844 1716.65 43.841 1701.57C38.4959 1686.49 31.4341 1677.01 28.5703 1674.16C28.5696 1674.16 28.5689 1674.16 28.5679 1674.16L-11.9868 1664.91C-11.9923 1664.91 -11.9962 1664.92 -11.9915 1664.92C0.102415 1672.9 23.8141 1695.78 22.0967 1723.59C22.0964 1723.6 22.0921 1723.6 22.0889 1723.6C16.3088 1719.13 3.10627 1707.01 -3.52222 1694.24C-11.8113 1678.28 -9.40096 1673.93 -20.1003 1662.32L-51.6997 1660.89L-52.0914 1661.61C-52.0928 1661.61 -52.0958 1661.62 -52.0982 1661.61L-53.5505 1660.81L-51.9436 1657.91L-39.7419 1632.48Z" fill="#2B3825"/>
<path d="M1435.67 432.77C1432.29 436.941 1424.6 448.698 1420.82 462.363C1417.04 476.022 1406.46 483.601 1401.64 485.686C1401.63 485.688 1401.63 485.686 1401.63 485.682C1400.67 475.241 1404.76 450.37 1428.81 434.354L1397.24 441.64C1393.41 445.916 1385.23 457.206 1383.13 468.156C1381.03 479.102 1368.07 490.523 1361.84 494.871C1361.84 494.873 1361.83 494.871 1361.83 494.867C1361.22 483.86 1365.8 458.198 1389.01 443.541L1354.7 451.461C1352.38 453.934 1346.94 461.682 1343.75 472.886C1340.55 484.084 1329.64 493.096 1324.57 496.207C1324.56 496.209 1324.56 496.207 1324.56 496.203C1324.94 487.389 1330.12 466.434 1347.84 453.045L1341.21 455.614L1338.55 456.642C1329.48 461.159 1304.51 465.664 1283.96 451.809C1283.96 451.806 1283.96 451.801 1283.96 451.8C1290.83 450.216 1306.99 447.649 1316.79 450.037C1323.76 451.736 1333.36 452.536 1340.57 452.859L1344.33 451.958C1321.92 444.457 1310.61 429.782 1307.68 423.076C1307.68 423.073 1307.68 423.069 1307.68 423.069C1314.97 423.328 1329.23 426.776 1334.83 434.244C1341.74 443.469 1347.49 447.659 1352.02 450.117L1384.34 442.376C1371.09 438.576 1349.61 428.604 1342.4 410.701C1342.4 410.698 1342.4 410.694 1342.41 410.694C1350.02 412.333 1366.82 417.559 1373.25 425.374C1378.54 431.801 1387.75 437.19 1393.82 440.107L1424.15 432.842C1411.59 428.305 1390.97 417.462 1381.88 400.134C1381.88 400.131 1381.88 400.127 1381.89 400.127C1388.37 401.057 1404.21 405.442 1415.79 415.554C1424.28 422.967 1430.04 427.942 1433.21 430.671L1457.74 424.796L1440.14 402.059L1440.14 402.059C1434.15 399.823 1423.99 397.179 1414.72 398.36C1403.49 399.79 1388.77 390.305 1382.81 385.379C1382.81 385.377 1382.81 385.373 1382.81 385.371C1390.77 380.146 1412.79 374.972 1437.31 396.052L1420.7 367.909C1420.7 367.908 1420.69 367.908 1420.69 367.907C1414.81 365.388 1400.52 360.646 1390.38 361.823C1380.25 362.999 1366.73 353.242 1361.23 348.21C1361.22 348.207 1361.22 348.203 1361.23 348.202C1371.99 344.75 1398 342.332 1416.02 360.238C1416.02 360.242 1416.03 360.237 1416.02 360.232L1400.48 330.422C1400.48 330.421 1400.48 330.42 1400.48 330.42C1396.18 328.504 1385.26 324.629 1375.97 324.449C1366.68 324.268 1354.22 317.849 1349.15 314.658C1349.14 314.656 1349.14 314.651 1349.15 314.65C1356.96 310.912 1377.61 307.796 1397.81 325.202C1397.82 325.206 1397.82 325.201 1397.82 325.197L1391.9 312.051L1391.9 312.05C1384.43 302.632 1371.61 279.238 1380.11 260.995C1380.11 260.992 1380.12 260.991 1380.12 260.994C1383.47 265.071 1390.59 276.31 1392.29 288.702C1394.42 304.185 1392.64 308.964 1398.23 320.727C1398.23 320.733 1398.24 320.732 1398.24 320.727C1397.01 313.238 1398.45 293.953 1414.02 276.425C1414.03 276.422 1414.03 276.423 1414.03 276.427C1414.74 281.6 1415.09 294.786 1410.79 306.235C1405.43 320.556 1401.95 319.906 1402.9 328.406C1402.9 328.407 1402.9 328.407 1402.9 328.408L1418.78 359.628C1415.26 352.69 1413.91 332.266 1436.76 306.061C1436.77 306.058 1436.77 306.059 1436.77 306.063C1437.8 312.616 1438.23 328.688 1431.75 340.646C1425.26 352.608 1423.29 362.46 1423.12 365.893C1423.12 365.894 1423.12 365.895 1423.12 365.895L1440.36 396.774C1440.36 396.779 1440.37 396.777 1440.37 396.772C1438.53 384.588 1439.49 356.592 1458.03 341.85C1458.04 341.847 1458.04 341.849 1458.04 341.853C1458.51 348.05 1458.36 363.288 1454.07 374.739C1448.7 389.06 1444.59 390.011 1443.34 403.381L1460.42 424.155L1461.1 423.993C1461.1 423.992 1461.11 423.994 1461.11 423.996L1461.42 425.371L1458.68 426.005L1435.67 432.77Z" fill="#2B3825"/>
<path d="M1499.93 1470.02C1502.96 1475.4 1512.28 1488.6 1525.29 1498.43C1538.29 1508.25 1541.92 1522.77 1542.11 1528.81C1542.11 1528.81 1542.1 1528.82 1542.1 1528.81C1530.53 1525.42 1505.67 1510.52 1498.72 1478.03L1493.15 1514.86C1496.1 1520.77 1504.71 1534.3 1515.53 1541.18C1526.35 1548.05 1533.07 1566.75 1535.08 1575.25C1535.08 1575.25 1535.08 1575.26 1535.08 1575.25C1523.05 1571.25 1497.55 1555.49 1491.7 1524.47L1485.65 1564.51C1487.31 1568.03 1493.29 1577.13 1503.92 1585.29C1514.54 1593.44 1519.55 1608.93 1520.74 1615.67C1520.74 1615.67 1520.73 1615.67 1520.73 1615.67C1511.47 1611.54 1491.25 1597.12 1484.43 1572.51L1484.37 1580.69L1484.35 1583.97C1485.34 1595.58 1479.59 1624.19 1456.08 1640.29C1456.07 1640.29 1456.07 1640.29 1456.07 1640.29C1457.28 1632.27 1461.38 1613.9 1468.08 1604.44C1472.85 1597.7 1477.76 1587.78 1481.16 1580.21L1481.79 1575.8C1464.28 1596.6 1443.8 1602.48 1435.39 1602.77C1435.39 1602.77 1435.39 1602.77 1435.39 1602.76C1438.75 1595.08 1448.47 1581.29 1458.83 1578.47C1471.61 1574.98 1478.53 1570.61 1483.07 1566.8L1488.48 1528.97C1478.81 1541.53 1459.05 1560.27 1436.86 1560.4C1436.85 1560.4 1436.85 1560.4 1436.85 1560.4C1441.82 1552.96 1454.53 1537.2 1465.61 1533.63C1474.71 1530.7 1484.37 1523.13 1490.06 1517.88L1495.13 1482.37C1484.97 1493.87 1464.64 1511.34 1442.27 1513.72C1442.26 1513.72 1442.26 1513.72 1442.26 1513.71C1446 1507.17 1457.4 1492.09 1473.11 1483.99C1484.63 1478.05 1492.39 1474 1496.65 1471.76L1500.75 1443.04L1468.99 1452.24L1468.99 1452.24C1464.06 1457.71 1456.93 1467.45 1454.27 1477.86C1451.05 1490.48 1434.67 1502.19 1426.89 1506.48C1426.88 1506.48 1426.88 1506.48 1426.88 1506.47C1424.66 1495.76 1428.45 1470.02 1461.36 1452.73L1424.24 1458.58C1424.24 1458.58 1424.24 1458.58 1424.24 1458.58C1419.06 1463.8 1407.94 1477.08 1404.9 1488.42C1401.87 1499.75 1385.71 1510.08 1378.01 1513.83C1378 1513.83 1378 1513.83 1378 1513.82C1378.87 1500.85 1387.29 1472.01 1414.06 1460.33C1414.07 1460.33 1414.07 1460.32 1414.06 1460.32L1375.6 1464.33C1375.6 1464.33 1375.6 1464.33 1375.6 1464.33C1371.73 1468.12 1362.97 1478.15 1358.84 1488C1354.72 1497.86 1342.58 1508.47 1337.02 1512.54C1337.02 1512.55 1337.01 1512.54 1337.01 1512.54C1336.32 1502.61 1341.73 1479.2 1368.9 1464.97C1368.9 1464.97 1368.9 1464.96 1368.89 1464.96L1352.33 1465.72L1352.33 1465.73C1339.09 1469.73 1308.65 1473.53 1292.75 1456.72C1292.74 1456.72 1292.75 1456.71 1292.75 1456.71C1298.53 1454.86 1313.56 1452 1327.53 1455.42C1344.99 1459.7 1349.34 1463.63 1364.29 1462.63C1364.3 1462.63 1364.3 1462.62 1364.29 1462.62C1355.77 1460.77 1335.75 1451.07 1323.6 1426.99C1323.6 1426.99 1323.6 1426.98 1323.6 1426.98C1329.43 1428.41 1343.68 1433.63 1354.11 1443.06C1367.15 1454.86 1364.98 1458.31 1374.47 1460.88C1374.47 1460.88 1374.47 1460.88 1374.48 1460.88L1414.58 1457.12C1405.67 1457.96 1383.26 1450.75 1364.91 1415.22C1364.91 1415.22 1364.91 1415.21 1364.92 1415.21C1372.36 1416.89 1389.73 1423.23 1399.77 1435.22C1409.81 1447.22 1419.52 1453.5 1423.11 1455.13C1423.11 1455.13 1423.11 1455.13 1423.12 1455.13L1463.43 1449.77C1463.44 1449.77 1463.44 1449.76 1463.43 1449.76C1449.63 1446.57 1420.1 1433.7 1412.18 1407.62C1412.18 1407.62 1412.18 1407.62 1412.19 1407.62C1419.01 1409.74 1435.24 1416.35 1445.67 1425.78C1458.71 1437.58 1457.99 1442.39 1471.75 1449.38L1501.2 1439.91L1501.31 1439.11C1501.31 1439.11 1501.31 1439.11 1501.32 1439.11L1502.92 1439.35L1502.44 1442.56L1499.93 1470.02Z" fill="#2B3825"/>
</g>
<defs>
<filter id="filter0_f_272_88" x="-179.845" y="594.426" width="348.239" height="299.339" filterUnits="userSpaceOnUse" color-interpolation-filters="sRGB">
<feFlood flood-opacity="0" result="BackgroundImageFix"/>
<feBlend mode="normal" in="SourceGraphic" in2="BackgroundImageFix" result="shape"/>
<feGaussianBlur stdDeviation="2" result="effect1_foregroundBlur_272_88"/>
</filter>
<filter id="filter1_f_272_88" x="1129.74" y="1128.78" width="654" height="589" filterUnits="userSpaceOnUse" color-interpolation-filters="sRGB">
<feFlood flood-opacity="0" result="BackgroundImageFix"/>
<feBlend mode="normal" in="SourceGraphic" in2="BackgroundImageFix" result="shape"/>
<feGaussianBlur stdDeviation="2" result="effect1_foregroundBlur_272_88"/>
</filter>
<linearGradient id="paint0_linear_272_88" x1="-162.663" y1="756.969" x2="162.779" y2="717.251" gradientUnits="userSpaceOnUse">
<stop stop-color="#4F7344"/>
<stop offset="1" stop-color="#4F7344" stop-opacity="0"/>
</linearGradient>
<linearGradient id="paint1_linear_272_88" x1="-149.667" y1="756.058" x2="132.577" y2="713.889" gradientUnits="userSpaceOnUse">
<stop stop-color="#ACD1A1"/>
<stop offset="1" stop-color="#ACD1A1" stop-opacity="0"/>
</linearGradient>
<radialGradient id="paint2_radial_272_88" cx="0" cy="0" r="1" gradientUnits="userSpaceOnUse" gradientTransform="translate(1456.74 1423.28) rotate(90) scale(290.5 323)">
<stop stop-color="#ACD1A1"/>
<stop offset="1" stop-color="#D9D9D9" stop-opacity="0"/>
</radialGradient>
<linearGradient id="paint3_linear_272_88" x1="1431.38" y1="1571.12" x2="1493.59" y2="1132.27" gradientUnits="userSpaceOnUse">
<stop stop-color="#4F7344"/>
<stop offset="1" stop-color="#4F7344" stop-opacity="0"/>
</linearGradient>
<linearGradient id="paint4_linear_272_88" x1="1434.83" y1="1553.84" x2="1479.55" y2="1170.61" gradientUnits="userSpaceOnUse">
<stop stop-color="#ACD1A1"/>
<stop offset="1" stop-color="#ACD1A1" stop-opacity="0"/>
</linearGradient>
<clipPath id="clip0_272_88">
<rect width="1440" height="2442" fill="white"/>
</clipPath>
</defs>
</svg>
