<svg width="1440" height="3355" viewBox="0 0 1440 3355" fill="none" xmlns="http://www.w3.org/2000/svg">
<g clip-path="url(#clip0_200_1052)">
<rect width="1440" height="3355" fill="white"/>
<g filter="url(#filter0_f_200_1052)">
<ellipse cx="0.296387" cy="2595.41" rx="323" ry="290.5" fill="url(#paint0_radial_200_1052)"/>
<path d="M97.0386 2830.86C76.7843 2864.15 54.607 2874.77 38.386 2876.24C26.4871 2877.33 14.4434 2873.88 2.9413 2870.59L2.48932 2870.46C-28.0032 2861.75 -70.002 2834.71 -83.7708 2771.6C-85.6713 2762.88 -85.5426 2753.89 -84.7077 2745.01C-81.105 2706.7 -79.8566 2646.05 -97.0493 2632.09C-137.801 2603.73 -201.035 2536.04 -127.963 2492.25C-102.262 2477.27 -40.5514 2465.61 7.68345 2532.8C11.6764 2538.37 15.7959 2543.9 21.0214 2548.33C44.869 2568.52 97.2763 2599.38 171.01 2608.29C186.423 2610.16 202.026 2613.76 214.189 2623.41C259.365 2659.25 248.511 2701.41 229.318 2729.08C220.362 2741.99 205.738 2749.12 191.306 2755.34C161.441 2768.2 119.992 2793.14 97.0386 2830.86Z" fill="url(#paint1_linear_200_1052)"/>
<path d="M83.5115 2806.81C67.5 2834.53 49.5577 2844.67 35.7398 2847.03C23.833 2849.07 11.4152 2845.77 -0.203379 2842.43C-26.4314 2834.87 -61.3926 2812.41 -74.6876 2760.64C-76.9113 2751.98 -76.9629 2742.96 -76.3792 2734.04C-74.1928 2700.65 -74.6575 2649.63 -89.646 2638.07C-125.718 2614.24 -182.196 2556.72 -119.529 2517.27C-97.6185 2503.85 -44.695 2492.56 -1.43364 2548.72C2.75248 2554.16 7.00236 2559.62 12.3903 2563.86C33.6906 2580.65 78.3956 2605.15 140.163 2611.83C155.577 2613.49 171.363 2616.59 183.476 2626.29C219.457 2655.08 212.808 2689.41 198.133 2713.25C189.915 2726.6 175.335 2733.96 161.168 2740.68C135.721 2752.76 102.004 2774.79 83.5115 2806.81Z" fill="url(#paint2_linear_200_1052)"/>
</g>
<g filter="url(#filter1_f_200_1052)">
<path d="M114.207 1292.67C99.8974 1317.56 83.2322 1327.17 70.2688 1329.82C59.224 1332.09 47.5648 1329.85 36.5367 1327.51C12.1337 1322.32 -20.6366 1305.12 -35.2183 1262.81C-38.3818 1253.63 -38.7105 1243.78 -38.4321 1234.07C-37.5998 1205.05 -39.8831 1163.38 -53.8627 1154.36C-88.54 1135.37 -143.432 1088.11 -85.5801 1050.95C-65.493 1038.38 -16.569 1026.2 25.6229 1071.69C30.3994 1076.84 35.1805 1082.08 41.0812 1085.89C62.0413 1099.43 104.469 1118.04 161.946 1120.86C176.45 1121.58 191.376 1123.49 203.396 1131.64C237.225 1154.58 232.596 1184 219.937 1205.23C212.306 1218.03 198.5 1225.17 185.15 1231.79C161.571 1243.48 130.621 1264.12 114.207 1292.67Z" fill="url(#paint3_linear_200_1052)"/>
<path d="M102.027 1275.36C90.8683 1295.87 77.5934 1304.74 66.7211 1307.85C55.9117 1310.95 44.0692 1308.96 33.0492 1306.56C12.2909 1302.06 -14.6176 1287.92 -28.0911 1253.99C-31.6874 1244.94 -32.2168 1235.08 -32.2547 1225.35C-32.3524 1200.28 -35.4588 1165.8 -47.5257 1158.42C-78.1626 1142.58 -127.055 1102.57 -77.5274 1069.28C-60.4699 1058.1 -18.7159 1046.75 18.8275 1084.27C23.8131 1089.25 28.7035 1094.39 34.7601 1098C53.3351 1109.06 89.1466 1123.48 136.819 1125.33C151.32 1125.89 166.384 1127.28 178.326 1135.57C204.526 1153.78 202.601 1177.13 193.473 1195C186.827 1208.01 173.329 1215.31 160.447 1222.28L159.849 1222.6C139.963 1233.36 115.097 1251.33 102.027 1275.36Z" fill="url(#paint4_linear_200_1052)"/>
</g>
<g filter="url(#filter2_f_200_1052)">
<ellipse rx="322.969" ry="289.81" transform="matrix(1.0001 3.21168e-09 -1.18255e-08 -0.999904 1458.74 2887.34)" fill="url(#paint5_radial_200_1052)"/>
<path d="M1645 3051.66C1678.02 3021.39 1684.08 2994.15 1681.47 2976.2C1679.72 2964.2 1673.87 2952.97 1668.5 2942.09C1652.83 2910.4 1613.76 2868.82 1539.75 2868.04C1530.85 2867.94 1522.06 2869.79 1513.54 2872.36C1472.73 2884.64 1405.61 2899.65 1386.46 2883.81C1346.72 2845.67 1259.3 2791.62 1227.46 2880.47C1216.68 2911.76 1217.4 2981.77 1302.09 3019.53C1308.34 3022.32 1314.56 3025.29 1319.96 3029.5C1347.29 3050.85 1393.6 3102.15 1419.43 3182.53C1424.19 3197.34 1430.91 3211.91 1442.6 3222.17C1493.32 3266.65 1538.56 3243.55 1564.61 3215.5C1575.32 3203.98 1579.52 3188.31 1582.67 3172.9C1589.87 3137.59 1608.04 3085.54 1645 3051.66Z" fill="url(#paint6_linear_200_1052)"/>
<path d="M1615.87 3042.17C1643.72 3017.79 1650.31 2995.26 1649.23 2979.64C1648.39 2967.56 1642.76 2956.12 1637.39 2945.26C1623.86 2917.89 1591.31 2883.04 1529.79 2880.22C1520.88 2879.81 1512.04 2881.48 1503.44 2883.81C1467.62 2893.51 1410.63 2904.53 1394.56 2890.56C1360.79 2856.52 1285.91 2807.61 1256.54 2884.22C1246.62 2911.05 1245.85 2971.44 1317.42 3006.21C1323.59 3009.21 1329.76 3012.31 1335.01 3016.72C1358.12 3036.09 1395.78 3080.43 1416.55 3148.26C1421.1 3163.11 1427.32 3177.88 1439.01 3188.13C1480.01 3224.1 1517.67 3207.53 1540.7 3185.15C1551.95 3174.22 1556.41 3158.57 1560.09 3143.31C1567.42 3112.87 1584.17 3069.92 1615.87 3042.17Z" fill="url(#paint7_linear_200_1052)"/>
</g>
<g filter="url(#filter3_f_200_1052)">
<ellipse cx="1461" cy="1744.5" rx="323" ry="290.5" fill="url(#paint8_radial_200_1052)"/>
<path d="M1648 1650.95C1681.07 1681.33 1687.1 1708.68 1684.45 1726.67C1682.7 1738.65 1676.88 1749.85 1671.53 1760.71C1655.89 1792.49 1616.83 1834.23 1542.78 1835.03C1533.86 1835.12 1525.05 1833.26 1516.52 1830.69C1475.7 1818.37 1408.6 1803.34 1389.46 1819.22C1349.73 1857.45 1262.3 1911.63 1230.46 1822.56C1219.68 1791.2 1220.4 1721.01 1305.09 1683.16C1311.34 1680.36 1317.56 1677.39 1322.95 1673.17C1350.3 1651.75 1396.63 1600.29 1422.46 1519.66C1427.2 1504.87 1433.89 1490.32 1445.54 1480.07C1496.31 1435.38 1541.6 1458.59 1567.66 1486.75C1578.33 1498.28 1582.52 1513.92 1585.65 1529.32C1592.84 1564.72 1611.01 1616.95 1648 1650.95Z" fill="url(#paint9_linear_200_1052)"/>
<path d="M1618.87 1660.46C1646.77 1684.94 1653.33 1707.56 1652.22 1723.23C1651.37 1735.28 1645.76 1746.7 1640.42 1757.54C1626.92 1784.99 1594.37 1819.97 1532.82 1822.81C1523.89 1823.22 1515.03 1821.54 1506.41 1819.2C1470.59 1809.48 1413.63 1798.45 1397.56 1812.45C1363.79 1846.57 1288.91 1895.6 1259.54 1818.8C1249.62 1791.9 1248.85 1731.37 1320.42 1696.51C1326.59 1693.5 1332.76 1690.39 1338.01 1685.98C1361.13 1666.55 1398.81 1622.07 1419.58 1554.01C1424.11 1539.18 1430.3 1524.44 1441.95 1514.19C1483 1478.04 1520.71 1494.7 1543.74 1517.17C1554.96 1528.11 1559.41 1543.74 1563.07 1558.99C1570.39 1589.51 1587.14 1632.61 1618.87 1660.46Z" fill="url(#paint10_linear_200_1052)"/>
</g>
<path d="M-21.4104 1249.52C-21.0291 1244.2 -21.4376 1230.23 -26.122 1216.92C-30.8044 1203.62 -26.4822 1191.42 -23.7325 1186.98C-23.7307 1186.97 -23.7269 1186.97 -23.7248 1186.98C-17.0012 1194.95 -6.19194 1217.58 -16.7111 1244.33L4.90548 1220.43C5.60007 1214.76 5.8602 1200.89 1.34399 1190.76C-3.17051 1180.63 0.914272 1163.94 3.52374 1156.85C3.52509 1156.84 3.52963 1156.84 3.53204 1156.84C10.2907 1165.48 21.1473 1189.03 10.5446 1214.19L34.0409 1188.22C34.5273 1184.88 34.5591 1175.46 30.7948 1164.5C27.0324 1153.54 30.8178 1139.98 33.1841 1134.56C33.1857 1134.55 33.1904 1134.55 33.1926 1134.55C37.8964 1141.96 45.584 1162.02 38.7402 1183.02L42.6931 1177.15L44.2742 1174.8C49.1108 1165.95 66.929 1148.07 91.5768 1147.7C91.5811 1147.7 91.5839 1147.7 91.5809 1147.7C86.8767 1152.9 75.1459 1164.19 65.7919 1167.82C59.1345 1170.39 50.8497 1175.2 44.7794 1179.04L42.2209 1181.91C64.7831 1175.28 82.3608 1180.83 88.5644 1184.64C88.5675 1184.64 88.5675 1184.64 88.5644 1184.64C82.4687 1188.58 68.8683 1193.88 60.0538 1190.96C49.1656 1187.37 42.0901 1187.22 36.9939 1187.79L15.0165 1212.49C27.9936 1208.05 51.1939 1203.98 67.2617 1214.49C67.265 1214.49 67.2649 1214.49 67.2612 1214.5C60.119 1217.49 43.4294 1222.78 33.7379 1220.06C25.7691 1217.82 15.1855 1218.66 8.57539 1219.73L-12.0486 1242.91C0.776991 1239.48 23.7773 1236.59 41.0501 1245.57C41.0537 1245.57 41.0541 1245.57 41.0505 1245.58C35.2297 1248.5 19.8059 1253.94 4.60245 1252.27C-6.54292 1251.05 -14.0687 1250.26 -18.2132 1249.84L-34.892 1268.59L-7.59429 1277.13L-7.59387 1277.13C-1.42859 1275.55 8.36498 1271.93 15.2623 1265.69C23.6148 1258.14 41.018 1257.51 48.6824 1258.14C48.6857 1258.14 48.6877 1258.14 48.6865 1258.15C45.1678 1266.93 30.1367 1283.68 -1.86527 1280.43L27.7015 1293.94C27.7024 1293.94 27.7034 1293.95 27.7045 1293.94C33.938 1292.65 48.3024 1288.39 55.9047 1281.67C63.5048 1274.95 80.0914 1275.22 87.4433 1276.2C87.4471 1276.2 87.4489 1276.2 87.4465 1276.2C80.6225 1285.15 60.7695 1301.91 35.8846 1297.54C35.879 1297.54 35.876 1297.55 35.8811 1297.55L65.5242 1313.04C65.5252 1313.04 65.5263 1313.04 65.5274 1313.04C70.1246 1312.16 81.237 1309.11 88.9231 1303.98C96.6064 1298.84 110.427 1296.99 116.387 1296.71C116.39 1296.71 116.393 1296.71 116.391 1296.72C112.14 1304.21 97.0551 1318.5 70.6682 1315.79C70.6629 1315.79 70.6602 1315.79 70.6648 1315.8L82.9743 1323.16L82.9754 1323.16C94.4316 1326.59 118.199 1338.39 121.637 1358.12C121.638 1358.12 121.635 1358.13 121.631 1358.13C116.577 1356.7 104.375 1351.58 95.9348 1342.44C85.3899 1331.01 84.1272 1326.1 72.8721 1319.68C72.867 1319.67 72.8602 1319.68 72.8643 1319.68C78.1291 1325.09 87.9253 1341.65 85.1835 1364.82C85.183 1364.82 85.178 1364.82 85.1751 1364.82C81.6535 1361 73.8723 1350.43 70.8618 1338.65C67.0964 1323.91 70.3067 1322.46 64.6916 1316.07C64.6912 1316.07 64.6907 1316.07 64.6902 1316.06L33.9727 1299.62C40.7983 1303.27 53.5115 1319.18 49.7658 1353.56C49.7653 1353.57 49.7604 1353.57 49.7575 1353.57C45.1915 1348.8 35.697 1335.93 34.1891 1322.48C32.6806 1309.03 28.6809 1299.87 26.8689 1296.97C26.8684 1296.97 26.8677 1296.97 26.8669 1296.97L-4.76513 1281.57C-4.77014 1281.57 -4.77546 1281.57 -4.77163 1281.58C3.66066 1290.48 18.8 1313.87 12.0496 1336.45C12.0485 1336.45 12.0437 1336.46 12.0412 1336.45C8.13697 1331.66 -0.412498 1319.14 -3.42348 1307.35C-7.18905 1292.61 -4.36948 1289.5 -10.9546 1277.87L-36.7139 1270.63L-37.1743 1271.15C-37.1762 1271.15 -37.1794 1271.15 -37.1814 1271.15L-38.2227 1270.21L-36.343 1268.13L-21.4104 1249.52Z" fill="#2B3825"/>
<path d="M-52.142 2563.71C-53.1305 2557.48 -57.3479 2541.5 -66.3098 2527.44C-75.2684 2513.38 -73.5636 2498.17 -71.5897 2492.32C-71.5886 2492.32 -71.585 2492.31 -71.5822 2492.32C-61.7024 2499.69 -43.1875 2522.85 -48.1248 2556.47L-29.6459 2523.15C-30.3666 2516.44 -33.7871 2500.4 -41.7038 2489.95C-49.618 2479.5 -49.392 2459.18 -48.289 2450.32C-48.2886 2450.31 -48.2843 2450.31 -48.2813 2450.31C-38.1834 2458.44 -19.3657 2482.65 -24.8253 2514.46L-4.73944 2478.25C-5.07474 2474.28 -7.56383 2463.43 -14.8378 2451.81C-22.1087 2440.21 -21.3878 2423.57 -20.1172 2416.7C-20.1165 2416.69 -20.112 2416.69 -20.1091 2416.69C-12.7066 2423.96 1.52411 2444.99 -0.722267 2471.01L2.25445 2463.19L3.44514 2460.06C6.64104 2448.58 22.3615 2423.21 50.6404 2416.17C50.6447 2416.17 50.6484 2416.17 50.6463 2416.17C46.6252 2423.42 36.145 2439.57 26.3462 2446.25C19.3728 2451 11.1222 2458.75 5.16265 2464.8L2.98816 2468.8C27.189 2455.12 48.9155 2456.79 57.0784 2459.51C57.0819 2459.51 57.0828 2459.51 57.0802 2459.52C51.1177 2465.68 36.8782 2475.43 25.9477 2474.44C12.4464 2473.22 4.25983 2474.94 -1.45435 2476.97L-20.1333 2511.3C-6.38147 2502.71 19.2383 2491.8 40.5573 2499.59C40.5611 2499.59 40.5621 2499.6 40.5589 2499.6C33.1385 2504.96 15.3411 2515.53 3.45159 2514.99C-6.32383 2514.55 -18.2838 2518.36 -25.6077 2521.37L-43.1364 2553.59C-29.2906 2546.19 -3.58056 2536.7 18.7138 2542.4C18.7178 2542.41 18.7192 2542.41 18.7161 2542.41C12.8008 2547.34 -3.50183 2557.74 -21.4548 2559.9C-34.6149 2561.48 -43.491 2562.59 -48.3757 2563.22L-62.5513 2589.28L-28.8295 2591.79L-28.829 2591.79C-22.1558 2588.31 -11.8504 2581.52 -5.5822 2572.49C2.00875 2561.55 21.8796 2556.16 30.8728 2554.83C30.8761 2554.83 30.8788 2554.83 30.8783 2554.84C29.1846 2565.9 16.3709 2589.22 -21.3504 2594.05L16.3178 2601.68C16.3189 2601.68 16.3199 2601.68 16.3209 2601.68C23.1518 2598.53 38.5482 2589.77 45.4977 2579.99C52.4456 2570.21 71.6178 2566.07 80.344 2565.23C80.3478 2565.23 80.3505 2565.23 80.3489 2565.23C74.8903 2577.36 56.5269 2601.99 26.6987 2603.63C26.693 2603.63 26.6918 2603.64 26.6973 2603.64L64.9874 2613.53C64.9885 2613.53 64.9895 2613.53 64.9906 2613.53C70.0472 2611.28 82.0252 2604.79 89.497 2596.82C96.9665 2588.84 112.385 2583.01 119.17 2581.08C119.174 2581.08 119.177 2581.08 119.176 2581.09C116.293 2590.86 102.756 2611.36 71.6417 2615.31C71.6364 2615.31 71.6354 2615.32 71.6405 2615.32L87.7915 2620.49L87.7927 2620.49C101.905 2621.38 132.437 2628.59 141.684 2650.38C141.686 2650.38 141.683 2650.39 141.68 2650.39C135.48 2650.11 120.055 2647.48 107.884 2639.22C92.6769 2628.89 89.9063 2623.57 75.2202 2619.19C75.2147 2619.19 75.2092 2619.2 75.2141 2619.2C82.7254 2624.02 98.452 2640.45 101.508 2667.87C101.508 2667.87 101.504 2667.88 101.501 2667.87C96.4227 2664.42 84.6282 2654.34 78.0007 2641.58C69.7119 2625.62 73.0194 2623.09 64.8396 2617.23C64.8391 2617.23 64.8385 2617.23 64.8379 2617.23L25.0592 2606.53C33.8983 2608.91 52.8023 2623.81 57.7111 2664.41C57.7116 2664.41 57.7073 2664.42 57.7038 2664.41C51.17 2660.16 36.7843 2647.88 31.4409 2632.8C26.0957 2617.72 19.0339 2608.24 16.1701 2605.39C16.1695 2605.39 16.1687 2605.39 16.1678 2605.39L-24.387 2596.14C-24.3924 2596.14 -24.3963 2596.15 -24.3917 2596.15C-12.2977 2604.13 11.414 2627.01 9.69653 2654.82C9.69627 2654.83 9.69196 2654.83 9.68878 2654.83C3.90861 2650.36 -9.29388 2638.24 -15.9224 2625.47C-24.2114 2609.51 -21.8011 2605.16 -32.5004 2593.55L-64.0998 2592.12L-64.4916 2592.84C-64.4929 2592.84 -64.496 2592.85 -64.4984 2592.84L-65.9506 2592.04L-64.3437 2589.14L-52.142 2563.71Z" fill="#2B3825"/>
<path d="M-39.7416 680.48C-40.7301 674.249 -44.9475 658.273 -53.9094 644.21C-62.868 630.152 -61.1632 614.943 -59.1893 609.089C-59.1882 609.086 -59.1846 609.084 -59.1818 609.087C-49.302 616.464 -30.7871 639.616 -35.7244 673.238L-17.2455 639.923C-17.9662 633.21 -21.3867 617.17 -29.3034 606.717C-37.2176 596.268 -36.9916 575.949 -35.8887 567.086C-35.8882 567.082 -35.8839 567.08 -35.8809 567.083C-25.783 575.214 -6.96532 599.417 -12.4249 631.233L7.66095 595.021C7.32565 591.047 4.83656 580.196 -2.43742 568.585C-9.70826 556.978 -8.98738 540.343 -7.71683 533.466C-7.7161 533.462 -7.71162 533.461 -7.70876 533.464C-0.306242 540.731 13.9245 561.758 11.6781 587.779L14.6548 579.96L15.8455 576.832C19.0414 565.348 34.7619 539.981 63.0408 532.937C63.0451 532.936 63.0488 532.94 63.0467 532.944C59.0256 540.191 48.5454 556.336 38.7466 563.017C31.7732 567.772 23.5226 575.525 17.563 581.573L15.3886 585.57C39.5894 571.886 61.3159 573.556 69.4788 576.277C69.4823 576.278 69.4832 576.282 69.4806 576.285C63.5181 582.45 49.2786 592.197 38.3481 591.208C24.8468 589.985 16.6602 591.711 10.946 593.736L-7.73289 628.072C6.01893 619.483 31.6387 608.567 52.9577 616.36C52.9615 616.361 52.9625 616.366 52.9593 616.369C45.5389 621.727 27.7414 632.3 15.852 631.764C6.07656 631.324 -5.88343 635.131 -13.2073 638.135L-30.736 670.357C-16.8902 662.96 8.81983 653.474 31.1142 659.174C31.1181 659.175 31.1196 659.18 31.1165 659.182C25.2012 664.115 8.89856 674.507 -9.05445 676.667C-22.2145 678.249 -31.0906 679.361 -35.9754 679.988L-50.151 706.046L-16.4291 708.564L-16.4286 708.564C-9.75544 705.085 0.549959 698.292 6.81819 689.259C14.4091 678.32 34.28 672.931 43.2732 671.602C43.2765 671.602 43.2792 671.605 43.2786 671.608C41.585 682.669 28.7713 705.987 -8.94999 710.818L28.7182 718.454C28.7193 718.454 28.7203 718.454 28.7212 718.454C35.5522 715.297 50.9486 706.539 57.8981 696.757C64.8459 686.978 84.0182 682.843 92.7444 681.997C92.7482 681.997 92.7508 682 92.7493 682.004C87.2906 694.128 68.9273 718.764 39.0991 720.404C39.0933 720.404 39.0922 720.412 39.0977 720.413L77.3878 730.297C77.3888 730.298 77.3899 730.298 77.391 730.297C82.4476 728.05 94.4256 721.563 101.897 713.586C109.367 705.612 124.786 699.776 131.57 697.853C131.574 697.851 131.577 697.855 131.576 697.859C128.693 707.628 115.156 728.131 84.0421 732.078C84.0368 732.079 84.0358 732.086 84.0409 732.088L100.192 737.264L100.193 737.264C114.305 738.147 144.837 745.362 154.085 767.151C154.086 767.155 154.084 767.159 154.08 767.158C147.881 766.877 132.455 764.251 120.285 755.985C105.077 745.657 102.307 740.337 87.6206 735.964C87.6151 735.962 87.6096 735.969 87.6145 735.972C95.1258 740.787 110.852 757.224 113.908 784.638C113.909 784.642 113.905 784.645 113.901 784.643C108.823 781.192 97.0286 771.113 90.4011 758.35C82.1123 742.388 85.4198 739.858 77.24 734.003C77.2395 734.003 77.2389 734.003 77.2383 734.002L37.4596 723.302C46.2987 725.68 65.2026 740.584 70.1115 781.18C70.112 781.184 70.1077 781.187 70.1042 781.185C63.5703 776.927 49.1846 764.652 43.8413 749.571C38.4961 734.486 31.4343 725.012 28.5705 722.16C28.5699 722.16 28.5691 722.159 28.5682 722.159L-11.9866 712.913C-11.992 712.912 -11.9959 712.919 -11.9913 712.922C0.102659 720.902 23.8144 743.782 22.0969 771.594C22.0967 771.598 22.0923 771.601 22.0892 771.598C16.309 767.127 3.10651 755.005 -3.52198 742.241C-11.811 726.278 -9.40072 721.933 -20.1001 710.316L-51.6994 708.892L-52.0912 709.612C-52.0925 709.615 -52.0956 709.616 -52.098 709.614L-53.5502 708.809L-51.9434 705.912L-39.7416 680.48Z" fill="#2B3825"/>
<path d="M1435.67 432.77C1432.29 436.941 1424.6 448.698 1420.82 462.363C1417.04 476.022 1406.46 483.601 1401.64 485.686C1401.63 485.688 1401.63 485.686 1401.63 485.682C1400.67 475.241 1404.76 450.37 1428.81 434.354L1397.24 441.64C1393.41 445.916 1385.23 457.206 1383.13 468.156C1381.03 479.102 1368.07 490.523 1361.84 494.871C1361.84 494.873 1361.83 494.871 1361.83 494.867C1361.22 483.86 1365.8 458.198 1389.01 443.541L1354.7 451.461C1352.38 453.934 1346.94 461.682 1343.75 472.886C1340.55 484.084 1329.64 493.096 1324.57 496.207C1324.56 496.209 1324.56 496.207 1324.56 496.203C1324.94 487.389 1330.12 466.434 1347.84 453.045L1341.21 455.614L1338.55 456.642C1329.48 461.159 1304.51 465.664 1283.96 451.809C1283.96 451.806 1283.96 451.801 1283.97 451.8C1290.83 450.216 1306.99 447.649 1316.79 450.037C1323.76 451.736 1333.36 452.536 1340.57 452.859L1344.33 451.958C1321.92 444.457 1310.61 429.782 1307.68 423.076C1307.68 423.073 1307.68 423.069 1307.68 423.069C1314.97 423.328 1329.23 426.776 1334.83 434.244C1341.74 443.469 1347.49 447.659 1352.02 450.117L1384.34 442.376C1371.09 438.576 1349.61 428.604 1342.4 410.701C1342.4 410.698 1342.4 410.694 1342.41 410.694C1350.02 412.333 1366.82 417.559 1373.25 425.374C1378.54 431.801 1387.75 437.19 1393.82 440.107L1424.15 432.842C1411.6 428.305 1390.97 417.462 1381.88 400.134C1381.88 400.131 1381.88 400.127 1381.89 400.127C1388.37 401.057 1404.21 405.442 1415.79 415.554C1424.28 422.967 1430.04 427.942 1433.21 430.671L1457.74 424.796L1440.14 402.059L1440.14 402.059C1434.15 399.823 1423.99 397.179 1414.72 398.36C1403.49 399.79 1388.77 390.305 1382.81 385.379C1382.81 385.377 1382.81 385.373 1382.82 385.371C1390.77 380.146 1412.79 374.972 1437.31 396.052L1420.7 367.909C1420.7 367.908 1420.69 367.908 1420.69 367.907C1414.81 365.388 1400.52 360.646 1390.38 361.823C1380.25 362.999 1366.73 353.242 1361.23 348.21C1361.22 348.207 1361.22 348.203 1361.23 348.202C1371.99 344.75 1398 342.332 1416.02 360.238C1416.02 360.242 1416.03 360.237 1416.02 360.232L1400.48 330.422C1400.48 330.421 1400.48 330.42 1400.48 330.42C1396.18 328.504 1385.26 324.629 1375.97 324.449C1366.68 324.268 1354.22 317.849 1349.15 314.658C1349.14 314.656 1349.14 314.651 1349.15 314.65C1356.96 310.912 1377.61 307.796 1397.81 325.202C1397.82 325.206 1397.82 325.201 1397.82 325.197L1391.9 312.051L1391.9 312.05C1384.43 302.632 1371.61 279.238 1380.11 260.995C1380.11 260.992 1380.12 260.991 1380.12 260.994C1383.47 265.071 1390.59 276.31 1392.29 288.702C1394.42 304.185 1392.64 308.964 1398.23 320.727C1398.24 320.733 1398.24 320.732 1398.24 320.727C1397.01 313.238 1398.45 293.953 1414.02 276.425C1414.03 276.422 1414.03 276.423 1414.03 276.427C1414.74 281.6 1415.09 294.786 1410.8 306.235C1405.43 320.556 1401.95 319.906 1402.9 328.406C1402.9 328.407 1402.9 328.407 1402.9 328.408L1418.78 359.628C1415.26 352.69 1413.91 332.266 1436.76 306.061C1436.77 306.058 1436.77 306.059 1436.77 306.063C1437.8 312.616 1438.23 328.688 1431.75 340.646C1425.26 352.608 1423.29 362.46 1423.12 365.893C1423.12 365.894 1423.12 365.895 1423.12 365.895L1440.36 396.774C1440.36 396.779 1440.37 396.777 1440.37 396.772C1438.53 384.588 1439.49 356.592 1458.03 341.85C1458.04 341.847 1458.04 341.849 1458.04 341.853C1458.51 348.05 1458.36 363.288 1454.07 374.739C1448.71 389.06 1444.59 390.011 1443.34 403.381L1460.42 424.155L1461.1 423.993C1461.1 423.992 1461.11 423.994 1461.11 423.996L1461.42 425.371L1458.68 426.005L1435.67 432.77Z" fill="#2B3825"/>
<path d="M1501.19 2911.71C1504.22 2906.35 1513.54 2893.18 1526.55 2883.37C1539.55 2873.57 1543.18 2859.09 1543.36 2853.07C1543.36 2853.06 1543.36 2853.06 1543.36 2853.06C1531.79 2856.44 1506.92 2871.31 1499.98 2903.72L1494.41 2866.98C1497.36 2861.09 1505.97 2847.59 1516.79 2840.73C1527.6 2833.87 1534.33 2815.22 1536.34 2806.74C1536.34 2806.74 1536.34 2806.73 1536.34 2806.74C1524.31 2810.73 1498.81 2826.45 1492.96 2857.39L1486.9 2817.46C1488.57 2813.94 1494.55 2804.87 1505.18 2796.73C1515.8 2788.59 1520.81 2773.14 1521.99 2766.42C1521.99 2766.42 1521.99 2766.42 1521.99 2766.42C1512.72 2770.54 1492.51 2784.92 1485.69 2809.47L1485.63 2801.31L1485.61 2798.05C1486.6 2786.46 1480.85 2757.92 1457.33 2741.86C1457.33 2741.86 1457.33 2741.86 1457.33 2741.87C1458.54 2749.86 1462.64 2768.18 1469.34 2777.62C1474.1 2784.34 1479.02 2794.24 1482.42 2801.79L1483.05 2806.19C1465.54 2785.44 1445.06 2779.58 1436.65 2779.29C1436.65 2779.29 1436.64 2779.29 1436.65 2779.29C1440.01 2786.96 1449.73 2800.71 1460.08 2803.53C1472.87 2807.01 1479.79 2811.37 1484.33 2815.17L1489.74 2852.91C1480.06 2840.38 1460.31 2821.68 1438.12 2821.55C1438.11 2821.55 1438.11 2821.55 1438.11 2821.56C1443.08 2828.98 1455.79 2844.7 1466.86 2848.26C1475.97 2851.18 1485.63 2858.73 1491.32 2863.97L1496.39 2899.39C1486.23 2887.92 1465.9 2870.5 1443.53 2868.12C1443.52 2868.12 1443.52 2868.12 1443.52 2868.13C1447.26 2874.65 1458.65 2889.7 1474.37 2897.78C1485.89 2903.7 1493.64 2907.74 1497.91 2909.98L1502.01 2938.62L1470.25 2929.45L1470.25 2929.45C1465.32 2923.99 1458.19 2914.28 1455.53 2903.89C1452.3 2891.31 1435.93 2879.62 1428.15 2875.34C1428.14 2875.34 1428.14 2875.34 1428.14 2875.35C1425.92 2886.03 1429.7 2911.71 1462.62 2928.96L1425.5 2923.12C1425.5 2923.12 1425.5 2923.12 1425.5 2923.12C1420.31 2917.91 1409.19 2904.67 1406.16 2893.36C1403.13 2882.06 1386.97 2871.75 1379.27 2868.01C1379.26 2868.01 1379.26 2868.01 1379.26 2868.01C1380.12 2880.96 1388.55 2909.72 1415.32 2921.37C1415.33 2921.37 1415.33 2921.38 1415.32 2921.38L1376.86 2917.39C1376.86 2917.39 1376.86 2917.39 1376.86 2917.39C1372.99 2913.61 1364.23 2903.6 1360.1 2893.77C1355.98 2883.94 1343.84 2873.36 1338.28 2869.29C1338.27 2869.29 1338.27 2869.29 1338.27 2869.29C1337.58 2879.21 1342.99 2902.55 1370.15 2916.75C1370.16 2916.75 1370.16 2916.76 1370.15 2916.76L1353.59 2916L1353.59 2915.99C1340.35 2912 1309.91 2908.21 1294.01 2924.98C1294 2924.98 1294 2924.98 1294.01 2924.98C1299.78 2926.84 1314.82 2929.68 1328.79 2926.27C1346.25 2922.01 1350.6 2918.08 1365.55 2919.08C1365.56 2919.09 1365.56 2919.09 1365.55 2919.09C1357.03 2920.94 1337.01 2930.61 1324.86 2954.63C1324.85 2954.64 1324.86 2954.64 1324.86 2954.64C1330.69 2953.21 1344.94 2948.01 1355.37 2938.6C1368.41 2926.83 1366.24 2923.39 1375.73 2920.82C1375.73 2920.82 1375.73 2920.82 1375.73 2920.82L1415.84 2924.58C1406.92 2923.75 1384.52 2930.94 1366.17 2966.37C1366.17 2966.38 1366.17 2966.38 1366.18 2966.38C1373.62 2964.71 1390.99 2958.39 1401.03 2946.42C1411.07 2934.45 1420.77 2928.19 1424.37 2926.56C1424.37 2926.56 1424.37 2926.56 1424.37 2926.56L1464.69 2931.91C1464.7 2931.91 1464.7 2931.92 1464.69 2931.92C1450.89 2935.1 1421.35 2947.94 1413.44 2973.95C1413.44 2973.96 1413.44 2973.96 1413.45 2973.96C1420.27 2971.84 1436.5 2965.25 1446.93 2955.84C1459.97 2944.07 1459.24 2939.27 1473.01 2932.3L1502.45 2941.75L1502.57 2942.54C1502.57 2942.54 1502.57 2942.54 1502.57 2942.54L1504.18 2942.3L1503.69 2939.11L1501.19 2911.71Z" fill="#2B3825"/>
<path d="M1504.19 1791.25C1507.22 1796.62 1516.54 1809.82 1529.55 1819.65C1542.55 1829.48 1546.18 1844 1546.36 1850.03C1546.36 1850.04 1546.36 1850.04 1546.36 1850.04C1534.79 1846.65 1509.92 1831.75 1502.98 1799.25L1497.41 1836.09C1500.36 1841.99 1508.97 1855.53 1519.79 1862.4C1530.6 1869.28 1537.33 1887.98 1539.34 1896.47C1539.34 1896.48 1539.34 1896.48 1539.34 1896.48C1527.31 1892.47 1501.81 1876.71 1495.96 1845.7L1489.9 1885.73C1491.57 1889.26 1497.55 1898.35 1508.18 1906.51C1518.8 1914.67 1523.81 1930.16 1524.99 1936.89C1524.99 1936.9 1524.99 1936.9 1524.99 1936.9C1515.72 1932.76 1495.51 1918.35 1488.69 1893.74L1488.63 1901.92L1488.61 1905.19C1489.6 1916.81 1483.85 1945.41 1460.33 1961.51C1460.33 1961.52 1460.33 1961.51 1460.33 1961.51C1461.54 1953.5 1465.64 1935.13 1472.34 1925.66C1477.1 1918.93 1482.02 1909.01 1485.42 1901.43L1486.05 1897.03C1468.54 1917.82 1448.06 1923.7 1439.65 1924C1439.65 1924 1439.64 1923.99 1439.65 1923.99C1443.01 1916.31 1452.73 1902.52 1463.08 1899.69C1475.87 1896.21 1482.79 1891.83 1487.33 1888.03L1492.74 1850.19C1483.06 1862.75 1463.31 1881.5 1441.12 1881.63C1441.11 1881.63 1441.11 1881.62 1441.11 1881.62C1446.08 1874.18 1458.79 1858.42 1469.86 1854.85C1478.97 1851.92 1488.63 1844.35 1494.32 1839.1L1499.39 1803.6C1489.23 1815.1 1468.9 1832.56 1446.53 1834.94C1446.52 1834.94 1446.52 1834.94 1446.52 1834.94C1450.26 1828.4 1461.65 1813.31 1477.37 1805.21C1488.89 1799.27 1496.64 1795.22 1500.91 1792.98L1505.01 1764.27L1473.25 1773.47L1473.25 1773.47C1468.32 1778.93 1461.19 1788.67 1458.53 1799.09C1455.3 1811.7 1438.93 1823.42 1431.15 1827.7C1431.14 1827.7 1431.14 1827.7 1431.14 1827.7C1428.92 1816.98 1432.7 1791.25 1465.62 1773.95L1428.5 1779.8C1428.5 1779.8 1428.5 1779.8 1428.5 1779.81C1423.31 1785.03 1412.19 1798.31 1409.16 1809.64C1406.13 1820.97 1389.97 1831.3 1382.27 1835.05C1382.26 1835.06 1382.26 1835.05 1382.26 1835.05C1383.12 1822.08 1391.55 1793.24 1418.32 1781.56C1418.33 1781.56 1418.33 1781.55 1418.32 1781.55L1379.86 1785.55C1379.86 1785.55 1379.86 1785.55 1379.86 1785.56C1375.99 1789.34 1367.23 1799.37 1363.1 1809.23C1358.98 1819.08 1346.84 1829.69 1341.28 1833.77C1341.27 1833.77 1341.27 1833.77 1341.27 1833.77C1340.58 1823.83 1345.99 1800.42 1373.15 1786.19C1373.16 1786.19 1373.16 1786.18 1373.15 1786.18L1356.59 1786.95L1356.59 1786.95C1343.35 1790.95 1312.91 1794.76 1297.01 1777.95C1297 1777.94 1297 1777.94 1297.01 1777.94C1302.78 1776.08 1317.82 1773.23 1331.79 1776.65C1349.25 1780.92 1353.6 1784.85 1368.55 1783.85C1368.56 1783.85 1368.56 1783.84 1368.55 1783.84C1360.03 1781.99 1340.01 1772.29 1327.86 1748.22C1327.85 1748.21 1327.86 1748.21 1327.86 1748.21C1333.69 1749.64 1347.94 1754.85 1358.37 1764.29C1371.41 1776.09 1369.24 1779.53 1378.73 1782.11C1378.73 1782.11 1378.73 1782.11 1378.73 1782.11L1418.84 1778.34C1409.92 1779.18 1387.52 1771.97 1369.17 1736.44C1369.17 1736.44 1369.17 1736.44 1369.18 1736.44C1376.62 1738.11 1393.99 1744.45 1404.03 1756.45C1414.07 1768.45 1423.77 1774.72 1427.37 1776.36C1427.37 1776.36 1427.37 1776.36 1427.37 1776.36L1467.69 1771C1467.7 1770.99 1467.7 1770.99 1467.69 1770.99C1453.89 1767.8 1424.35 1754.92 1416.44 1728.85C1416.44 1728.85 1416.44 1728.84 1416.45 1728.84C1423.27 1730.97 1439.5 1737.57 1449.93 1747.01C1462.97 1758.81 1462.24 1763.61 1476.01 1770.61L1505.45 1761.13L1505.57 1760.34C1505.57 1760.34 1505.57 1760.33 1505.57 1760.34L1507.18 1760.58L1506.69 1763.78L1504.19 1791.25Z" fill="#2B3825"/>
</g>
<defs>
<filter id="filter0_f_200_1052" x="-328.704" y="2298.91" width="658" height="593" filterUnits="userSpaceOnUse" color-interpolation-filters="sRGB">
<feFlood flood-opacity="0" result="BackgroundImageFix"/>
<feBlend mode="normal" in="SourceGraphic" in2="BackgroundImageFix" result="shape"/>
<feGaussianBlur stdDeviation="3" result="effect1_foregroundBlur_200_1052"/>
</filter>
<filter id="filter1_f_200_1052" x="-114.845" y="1035.43" width="348.239" height="299.339" filterUnits="userSpaceOnUse" color-interpolation-filters="sRGB">
<feFlood flood-opacity="0" result="BackgroundImageFix"/>
<feBlend mode="normal" in="SourceGraphic" in2="BackgroundImageFix" result="shape"/>
<feGaussianBlur stdDeviation="2" result="effect1_foregroundBlur_200_1052"/>
</filter>
<filter id="filter2_f_200_1052" x="1131.74" y="2593.55" width="654" height="657.566" filterUnits="userSpaceOnUse" color-interpolation-filters="sRGB">
<feFlood flood-opacity="0" result="BackgroundImageFix"/>
<feBlend mode="normal" in="SourceGraphic" in2="BackgroundImageFix" result="shape"/>
<feGaussianBlur stdDeviation="2" result="effect1_foregroundBlur_200_1052"/>
</filter>
<filter id="filter3_f_200_1052" x="1134" y="1450" width="654" height="589" filterUnits="userSpaceOnUse" color-interpolation-filters="sRGB">
<feFlood flood-opacity="0" result="BackgroundImageFix"/>
<feBlend mode="normal" in="SourceGraphic" in2="BackgroundImageFix" result="shape"/>
<feGaussianBlur stdDeviation="2" result="effect1_foregroundBlur_200_1052"/>
</filter>
<radialGradient id="paint0_radial_200_1052" cx="0" cy="0" r="1" gradientUnits="userSpaceOnUse" gradientTransform="translate(0.296387 2595.41) rotate(90) scale(290.5 323)">
<stop stop-color="#ACD1A1"/>
<stop offset="1" stop-color="#D9D9D9" stop-opacity="0"/>
</radialGradient>
<linearGradient id="paint1_linear_200_1052" x1="-153.518" y1="2685.74" x2="245.034" y2="2663.52" gradientUnits="userSpaceOnUse">
<stop stop-color="#4F7344"/>
<stop offset="1" stop-color="#4F7344" stop-opacity="0"/>
</linearGradient>
<linearGradient id="paint2_linear_200_1052" x1="-137.652" y1="2685.75" x2="208.698" y2="2657.86" gradientUnits="userSpaceOnUse">
<stop stop-color="#ACD1A1"/>
<stop offset="1" stop-color="#ACD1A1" stop-opacity="0"/>
</linearGradient>
<linearGradient id="paint3_linear_200_1052" x1="-97.663" y1="1197.97" x2="227.779" y2="1158.25" gradientUnits="userSpaceOnUse">
<stop stop-color="#4F7344"/>
<stop offset="1" stop-color="#4F7344" stop-opacity="0"/>
</linearGradient>
<linearGradient id="paint4_linear_200_1052" x1="-84.6672" y1="1197.06" x2="197.577" y2="1154.89" gradientUnits="userSpaceOnUse">
<stop stop-color="#ACD1A1"/>
<stop offset="1" stop-color="#ACD1A1" stop-opacity="0"/>
</linearGradient>
<radialGradient id="paint5_radial_200_1052" cx="0" cy="0" r="1" gradientUnits="userSpaceOnUse" gradientTransform="translate(322.969 289.81) rotate(90) scale(289.81 322.969)">
<stop stop-color="#ACD1A1"/>
<stop offset="1" stop-color="#D9D9D9" stop-opacity="0"/>
</radialGradient>
<linearGradient id="paint6_linear_200_1052" x1="1432.64" y1="2810.86" x2="1494.55" y2="3248.67" gradientUnits="userSpaceOnUse">
<stop stop-color="#4F7344"/>
<stop offset="1" stop-color="#4F7344" stop-opacity="0"/>
</linearGradient>
<linearGradient id="paint7_linear_200_1052" x1="1436.08" y1="2828.09" x2="1480.59" y2="3210.4" gradientUnits="userSpaceOnUse">
<stop stop-color="#ACD1A1"/>
<stop offset="1" stop-color="#ACD1A1" stop-opacity="0"/>
</linearGradient>
<radialGradient id="paint8_radial_200_1052" cx="0" cy="0" r="1" gradientUnits="userSpaceOnUse" gradientTransform="translate(1461 1744.5) rotate(90) scale(290.5 323)">
<stop stop-color="#ACD1A1"/>
<stop offset="1" stop-color="#D9D9D9" stop-opacity="0"/>
</radialGradient>
<linearGradient id="paint9_linear_200_1052" x1="1435.64" y1="1892.35" x2="1497.85" y2="1453.49" gradientUnits="userSpaceOnUse">
<stop stop-color="#4F7344"/>
<stop offset="1" stop-color="#4F7344" stop-opacity="0"/>
</linearGradient>
<linearGradient id="paint10_linear_200_1052" x1="1439.08" y1="1875.07" x2="1483.81" y2="1491.84" gradientUnits="userSpaceOnUse">
<stop stop-color="#ACD1A1"/>
<stop offset="1" stop-color="#ACD1A1" stop-opacity="0"/>
</linearGradient>
<clipPath id="clip0_200_1052">
<rect width="1440" height="3355" fill="white"/>
</clipPath>
</defs>
</svg>
